<svg width="117" height="117" viewBox="0 0 117 117" fill="none" xmlns="http://www.w3.org/2000/svg">
<path d="M26 55L23 55L23 61L26 61L26 55ZM92 58L92.9235 60.8543L92.53 55.0472L92 58ZM26 61L92 61L92 55L26 55L26 61ZM92.53 55.0472C83.9725 53.5112 77.9682 47.4483 74.012 40.8349C72.0487 37.5529 70.6516 34.2304 69.7497 31.4735C68.8166 28.6209 68.5 26.641 68.5 26L62.5 26C62.5 27.609 63.0584 30.3166 64.0471 33.339C65.0671 36.4571 66.6388 40.1971 68.863 43.9151C73.2818 51.3017 80.5275 58.9888 91.47 60.9528L92.53 55.0472ZM91.0765 55.1457C81.7528 58.1622 74.6419 64.9518 69.9008 71.8659C65.2226 78.6883 62.5 86.1575 62.5 91L68.5 91C68.5 87.8425 70.5274 81.5617 74.8492 75.2591C79.1081 69.0482 85.2472 63.3378 92.9235 60.8543L91.0765 55.1457Z" fill="#FEE9BE"/>
<circle cx="58.5" cy="58.5" r="57.5" transform="rotate(-90 58.5 58.5)" stroke="#FEE9BE" stroke-width="2"/>
</svg>
