<svg width="3241" height="52" viewBox="0 0 3241 52" fill="none" xmlns="http://www.w3.org/2000/svg" >
<g clip-path="url(#clip0_477_1034)">
<path d="M1480.81 0.000145389C1473.2 0.00543673 1465.08 2.64097 1459.07 8.24086C1453.04 13.8459 1449.84 23.385 1453.65 33.2986C1456.74 41.3233 1462 46.7024 1467.86 49.2407C1473.72 51.779 1479.88 51.5584 1484.96 49.6482C1490.04 47.7381 1494.47 44.1297 1495.97 38.6206C1497.46 33.1116 1494.54 26.6794 1488.83 22.7625C1488.2 22.328 1487.49 22.0219 1486.74 21.8618C1485.99 21.7018 1485.22 21.6909 1484.47 21.8298C1483.72 21.9688 1483 22.2548 1482.36 22.6714C1481.72 23.0881 1481.17 23.6272 1480.73 24.2579C1480.3 24.8886 1480 25.5984 1479.84 26.3466C1479.68 27.0949 1479.68 27.8668 1479.82 28.6182C1479.96 29.3696 1480.25 30.0857 1480.67 30.7253C1481.09 31.365 1481.63 31.9157 1482.26 32.3457C1485.4 34.5005 1484.94 34.9822 1484.78 35.582C1484.61 36.1819 1483.31 37.8852 1480.88 38.8004C1478.45 39.7156 1475.32 39.8372 1472.45 38.5967C1469.59 37.3562 1466.66 34.8062 1464.48 29.1274C1462.11 22.9837 1463.64 19.8364 1466.97 16.7393C1470.3 13.6422 1476.17 11.5971 1480.83 11.5971C1496.42 11.5672 1509.5 20.8289 1523.53 30.1702C1537.57 39.5115 1553.21 49.0032 1572.25 43.9666C1572.32 43.9516 1572.38 43.9356 1572.44 43.9186C1581.46 41.2224 1587.53 36.3887 1590.31 30.4398C1593.08 24.4908 1592.31 18.0384 1589.6 13.1133C1586.9 8.1882 1582.24 4.31171 1576.35 3.53009C1570.47 2.74849 1563.96 5.91122 1559.82 12.1843C1559.36 12.8181 1559.03 13.5382 1558.86 14.3014C1558.68 15.0646 1558.67 15.855 1558.81 16.6251C1558.95 17.3952 1559.24 18.1289 1559.67 18.7822C1560.1 19.4355 1560.66 19.9947 1561.32 20.4262C1561.97 20.8577 1562.7 21.1526 1563.47 21.2931C1564.24 21.4336 1565.03 21.4167 1565.8 21.2436C1566.56 21.0705 1567.28 20.7446 1567.91 20.2857C1568.55 19.8267 1569.08 19.2442 1569.49 18.5732C1571.88 14.9542 1573.39 14.8452 1574.83 15.0371C1576.28 15.2291 1578.28 16.5779 1579.43 18.687C1580.59 20.7961 1580.89 23.2084 1579.79 25.5493C1578.7 27.8754 1575.93 30.7112 1569.19 32.7532C1555.14 36.4228 1543.67 29.654 1529.96 20.5209C1516.21 11.3707 1500.89 -0.0298901 1480.82 5.88825e-05L1480.81 0.000145389ZM1759.32 0.000145389C1739.25 -0.0297129 1723.93 11.3707 1710.18 20.521C1696.46 29.6541 1685 36.4229 1670.95 32.7533C1664.21 30.7113 1661.43 27.8755 1660.35 25.5494C1659.26 23.2084 1659.55 20.7962 1660.71 18.6871C1661.87 16.578 1663.87 15.2291 1665.31 15.0372C1666.76 14.8453 1668.27 14.9537 1670.66 18.5732C1671.06 19.2453 1671.59 19.8288 1672.23 20.2887C1672.86 20.7486 1673.58 21.0752 1674.35 21.2489C1675.11 21.4227 1675.9 21.4399 1676.67 21.2995C1677.44 21.1591 1678.18 20.8641 1678.83 20.4322C1679.48 20.0003 1680.04 19.4405 1680.47 18.7866C1680.91 18.1327 1681.2 17.3982 1681.34 16.6274C1681.48 15.8567 1681.46 15.0656 1681.29 14.302C1681.11 13.5384 1680.78 12.818 1680.32 12.1844C1676.18 5.91129 1669.67 2.74858 1663.79 3.53016C1657.9 4.31175 1653.24 8.18827 1650.54 13.1134C1647.83 18.0385 1647.06 24.4909 1649.83 30.4399C1652.61 36.3888 1658.68 41.2225 1667.7 43.9187C1667.77 43.9357 1667.83 43.9517 1667.89 43.9667C1686.93 49.0033 1702.58 39.5115 1716.61 30.1702C1730.64 20.829 1743.73 11.5669 1759.31 11.5972C1763.98 11.5972 1769.85 13.6423 1773.18 16.7394C1776.5 19.8365 1778.03 22.9838 1775.66 29.1274C1773.48 34.8063 1770.56 37.3562 1767.69 38.5968C1764.83 39.8372 1761.7 39.7157 1759.27 38.8005C1756.83 37.8853 1755.53 36.1819 1755.37 35.5821C1755.2 34.9823 1754.73 34.5005 1757.88 32.3458C1759.14 31.4708 1760.01 30.1323 1760.28 28.6225C1760.56 27.1128 1760.23 25.5546 1759.36 24.2885C1758.49 23.0223 1757.16 22.1511 1755.65 21.8652C1754.14 21.5793 1752.58 21.9019 1751.31 22.7626C1745.6 26.6795 1742.69 33.1117 1744.18 38.6207C1745.67 44.1298 1750.11 47.7381 1755.19 49.6483C1760.27 51.5584 1766.43 51.779 1772.29 49.2408C1778.15 46.7025 1783.4 41.3234 1786.49 33.2987C1790.31 23.3851 1787.11 13.8459 1781.08 8.24093C1775.06 2.64104 1766.94 0.00503638 1759.33 0.000217478L1759.32 0.000145389ZM1629.11 6.30499C1625.21 6.30824 1620.71 8.3977 1619.22 12.1304C1618.44 10.464 1617.74 9.7376 1616.56 8.36667C1614.84 6.62502 1611.85 6.30622 1609.54 6.31098C1603.67 6.37225 1599.04 12.4512 1599.06 18.4773C1598.92 25.0563 1602.72 30.9753 1607.46 34.8568C1609.95 37.0412 1612.83 39.2396 1615.38 41.6771C1617.33 43.6208 1618.58 45.3312 1619.74 44.8176C1620.62 44.426 1621.94 43.328 1623.36 41.6172C1627.07 37.749 1631.78 35.0776 1635.18 30.8353C1638.46 26.9777 1640.53 21.6197 1639.52 16.3856C1638.76 11.6461 1635.4 7.08038 1630.73 6.43084C1630.21 6.34504 1629.66 6.30457 1629.11 6.30499Z" fill="#FEEABF"/>
<path d="M79 26H1452" stroke="#FEEABF" stroke-width="12" stroke-linecap="round"/>
<path d="M1788 26L3162 26" stroke="#FEEABF" stroke-width="12" stroke-linecap="round"/>
<path d="M3205.18 6.84237C3206.01 6.35805 3207.09 6.11719 3208.17 6.11719C3209.24 6.11719 3210.32 6.35816 3211.15 6.84237L3240.09 23.8032C3241.74 24.7717 3241.74 26.3288 3240.09 27.2973L3211.15 44.2582C3209.49 45.2267 3206.83 45.2267 3205.18 44.2582L3176.24 27.2973C3174.59 26.3288 3174.59 24.7717 3176.24 23.8032L3205.18 6.84237Z" fill="#FEEABF"/>
<path d="M30.1818 6.84237C31.0078 6.35805 32.0868 6.11719 33.1668 6.11719C34.2448 6.11719 35.3178 6.35816 36.1458 6.84237L65.0858 23.8032C66.7388 24.7717 66.7388 26.3288 65.0858 27.2973L36.1458 44.2582C34.4918 45.2267 31.8338 45.2267 30.1818 44.2582L1.23975 27.2973C-0.41325 26.3288 -0.41325 24.7717 1.23975 23.8032L30.1818 6.84237Z" fill="#FEEABF"/>
</g>
<defs>
<clipPath id="clip0_477_1034">
<rect width="3241" height="52" fill="white"/>
</clipPath>
</defs>
</svg>
