<svg width="813" height="52" viewBox="0 0 813 52" fill="none" xmlns="http://www.w3.org/2000/svg" style="background:transparent;" >
<path d="M267.045 0.000145389C259.437 0.00543673 251.321 2.64097 245.302 8.24086C239.279 13.8459 236.072 23.385 239.89 33.2986C242.981 41.3233 248.236 46.7024 254.095 49.2407C259.954 51.779 266.112 51.5584 271.193 49.6482C276.273 47.7381 280.711 44.1297 282.203 38.6206C283.694 33.1116 280.78 26.6794 275.065 22.7625C274.435 22.328 273.727 22.0219 272.979 21.8618C272.231 21.7018 271.459 21.6909 270.708 21.8298C269.956 21.9688 269.239 22.2548 268.597 22.6714C267.956 23.0881 267.404 23.6272 266.971 24.2579C266.539 24.8886 266.236 25.5984 266.078 26.3466C265.921 27.0949 265.913 27.8668 266.054 28.6182C266.196 29.3696 266.484 30.0857 266.903 30.7253C267.322 31.365 267.863 31.9157 268.495 32.3457C271.64 34.5005 271.175 34.9822 271.013 35.582C270.847 36.1819 269.551 37.8852 267.118 38.8004C264.683 39.7156 261.554 39.8372 258.691 38.5967C255.828 37.3562 252.901 34.8062 250.714 29.1274C248.348 22.9837 249.877 19.8364 253.208 16.7393C256.536 13.6422 262.406 11.5971 267.069 11.5971C282.653 11.5672 295.741 20.8289 309.771 30.1702C323.803 39.5115 339.446 49.0032 358.491 43.9666C358.552 43.9516 358.612 43.9356 358.673 43.9186C367.694 41.2224 373.769 36.3887 376.545 30.4398C379.321 24.4908 378.547 18.0384 375.841 13.1133C373.136 8.1882 368.474 4.31171 362.59 3.53009C356.705 2.74849 350.198 5.91122 346.054 12.1843C345.595 12.8181 345.268 13.5382 345.095 14.3014C344.921 15.0646 344.904 15.855 345.044 16.6251C345.184 17.3952 345.478 18.1289 345.909 18.7822C346.34 19.4355 346.899 19.9947 347.552 20.4262C348.205 20.8577 348.939 21.1526 349.709 21.2931C350.479 21.4336 351.269 21.4167 352.032 21.2436C352.796 21.0705 353.516 20.7446 354.15 20.2857C354.784 19.8267 355.319 19.2442 355.722 18.5732C358.113 14.9542 359.623 14.8452 361.067 15.0371C362.512 15.2291 364.512 16.5779 365.67 18.687C366.828 20.7961 367.123 23.2084 366.025 25.5493C364.94 27.8754 362.17 30.7112 355.423 32.7532C341.378 36.4228 329.91 29.654 316.192 20.5209C302.448 11.3707 287.124 -0.0298901 267.059 5.88827e-05L267.045 0.000145389ZM545.552 0.000145389C525.487 -0.0297129 510.164 11.3707 496.419 20.521C482.7 29.6541 471.233 36.4229 457.187 32.7533C450.442 30.7113 447.671 27.8755 446.585 25.5494C445.493 23.2084 445.79 20.7962 446.944 18.6871C448.103 16.578 450.102 15.2291 451.547 15.0372C452.992 14.8453 454.503 14.9537 456.894 18.5732C457.296 19.2453 457.83 19.8288 458.464 20.2887C459.098 20.7486 459.819 21.0752 460.583 21.2489C461.347 21.4227 462.138 21.4399 462.908 21.2995C463.679 21.1591 464.413 20.8641 465.067 20.4322C465.72 20.0003 466.279 19.4405 466.711 18.7866C467.142 18.1327 467.436 17.3982 467.576 16.6274C467.715 15.8567 467.697 15.0656 467.523 14.302C467.348 13.5384 467.021 12.818 466.56 12.1844C462.416 5.91129 455.909 2.74858 450.025 3.53016C444.14 4.31175 439.478 8.18827 436.774 13.1134C434.07 18.0385 433.298 24.4909 436.07 30.4399C438.846 36.3888 444.92 41.2225 453.941 43.9187C454.002 43.9357 454.062 43.9517 454.123 43.9667C473.168 49.0033 488.816 39.5115 502.849 30.1702C516.88 20.829 529.967 11.5669 545.55 11.5972C550.212 11.5972 556.083 13.6423 559.412 16.7394C562.74 19.8365 564.266 22.9838 561.899 29.1274C559.712 34.8063 556.792 37.3562 553.928 38.5968C551.065 39.8372 547.936 39.7157 545.502 38.8005C543.067 37.8853 541.768 36.1819 541.606 35.5821C541.44 34.9823 540.969 34.5005 544.117 32.3458C545.378 31.4708 546.242 30.1323 546.519 28.6225C546.797 27.1128 546.465 25.5546 545.597 24.2885C544.73 23.0223 543.396 22.1511 541.888 21.8652C540.38 21.5793 538.82 21.9019 537.549 22.7626C531.833 26.6795 528.925 33.1117 530.417 38.6207C531.908 44.1298 536.346 47.7381 541.427 49.6483C546.507 51.5584 552.666 51.779 558.525 49.2408C564.384 46.7025 569.638 41.3234 572.73 33.2987C576.547 23.3851 573.342 13.8459 567.317 8.24093C561.299 2.64104 553.176 0.00503638 545.567 0.000217478L545.552 0.000145389ZM33.1598 6.11927C32.0803 6.11927 31.0073 6.36013 30.1807 6.84445L1.23902 23.8053C-0.413008 24.7738 -0.413008 26.3309 1.23902 27.2994L30.1807 44.2603C31.8339 45.2288 34.4913 45.2288 36.1441 44.2603L65.085 27.2994C66.7375 26.3309 66.7375 24.7738 65.085 23.8053L36.1441 6.84445C35.3163 6.36024 34.2381 6.11927 33.1598 6.11927ZM779.463 6.11927C778.383 6.11927 777.304 6.36013 776.478 6.84445L747.536 23.8053C745.883 24.7738 745.883 26.3309 747.536 27.2994L776.478 44.2603C778.13 45.2288 780.788 45.2288 782.442 44.2603L811.382 27.2994C813.035 26.3309 813.035 24.7738 811.382 23.8053L782.442 6.84445C781.614 6.36024 780.541 6.11927 779.463 6.11927ZM415.342 6.30499C411.446 6.30824 406.942 8.3977 405.453 12.1304C404.675 10.464 403.976 9.7376 402.793 8.36667C401.081 6.62502 398.082 6.30622 395.774 6.31098C389.91 6.37225 385.274 12.4512 385.298 18.4773C385.158 25.0563 388.96 30.9753 393.701 34.8568C396.182 37.0412 399.07 39.2396 401.612 41.6771C403.567 43.6208 404.82 45.3312 405.975 44.8176C406.856 44.426 408.18 43.328 409.595 41.6172C413.307 37.749 418.02 35.0776 421.42 30.8353C424.696 26.9777 426.763 21.6197 425.759 16.3856C424.997 11.6461 421.638 7.08038 416.967 6.43084C416.445 6.34504 415.899 6.30457 415.342 6.30499ZM75.7531 19.7479C74.9905 19.7466 74.235 19.8957 73.53 20.1867C72.8251 20.4777 72.1844 20.9048 71.6447 21.4437C71.1049 21.9825 70.6768 22.6225 70.3846 23.327C70.0925 24.0315 69.9421 24.7866 69.9421 25.5493C69.9421 26.312 70.0925 27.0672 70.3846 27.7717C70.6768 28.4761 71.1049 29.1161 71.6447 29.655C72.1844 30.1938 72.8251 30.6209 73.53 30.9119C74.235 31.2029 74.9905 31.352 75.7531 31.3508H223.762C224.525 31.352 225.28 31.2029 225.985 30.9119C226.69 30.6209 227.331 30.1938 227.871 29.655C228.41 29.1161 228.838 28.4761 229.131 27.7717C229.423 27.0672 229.573 26.312 229.573 25.5493C229.573 24.7866 229.423 24.0315 229.131 23.327C228.838 22.6225 228.41 21.9825 227.871 21.4437C227.331 20.9048 226.69 20.4777 225.985 20.1867C225.28 19.8957 224.525 19.7466 223.762 19.7479H75.7531ZM588.859 19.7479C588.097 19.7466 587.341 19.8957 586.636 20.1867C585.931 20.4777 585.291 20.9048 584.751 21.4437C584.211 21.9825 583.783 22.6225 583.491 23.327C583.199 24.0315 583.048 24.7866 583.048 25.5493C583.048 26.312 583.199 27.0672 583.491 27.7717C583.783 28.4761 584.211 29.1161 584.751 29.655C585.291 30.1938 585.931 30.6209 586.636 30.9119C587.341 31.2029 588.097 31.352 588.859 31.3508H736.868C737.631 31.352 738.386 31.2029 739.091 30.9119C739.796 30.6209 740.437 30.1938 740.977 29.655C741.517 29.1161 741.945 28.4761 742.237 27.7717C742.529 27.0672 742.679 26.312 742.679 25.5493C742.679 24.7866 742.529 24.0315 742.237 23.327C741.945 22.6225 741.517 21.9825 740.977 21.4437C740.437 20.9048 739.796 20.4777 739.091 20.1867C738.386 19.8957 737.631 19.7466 736.868 19.7479H588.859Z" fill="#FEEABF"/>
</svg>
